<?xml version="1.0" encoding="UTF-8"?>
<!-- Generated by Pixelmator Pro 3.3.2 -->
<svg width="512" height="512" viewBox="0 0 512 512" xmlns="http://www.w3.org/2000/svg" xmlns:xlink="http://www.w3.org/1999/xlink">
    <path id="path1" fill="#ffffff" stroke="none" d="M 306.160004 413.269989 C 253.869995 439.519989 193.130005 448.309998 134.860001 447.950012 C 117.986669 447.843343 95.983335 446.426676 68.849998 443.700012 C 68.469999 443.660014 68.26 443.453339 68.220001 443.079987 C 63.619999 398.059998 63.040001 352 69.099998 307.950012 C 73.970001 272.640015 83.489998 237.859985 99.230003 206.390015 C 125.056669 154.756673 164.786667 116.920003 218.419998 92.880005 C 257.390015 75.419983 299.920013 66.919983 342.929993 64.649994 C 375.656657 62.916656 408.33666 64.746663 440.970001 70.140015 C 441.393127 70.212006 441.723114 70.546021 441.790009 70.970001 C 447.476674 105.823334 449.180003 140.766663 446.899994 175.799988 C 444.290009 215.97998 435.980011 256.149994 419.98999 292.51001 C 396.056661 346.930013 358.113332 387.183339 306.160004 413.269989 Z M 345.859985 329.089996 C 370.769989 300.450012 386.679993 266.980011 395.429993 230.179993 C 404.76001 190.940002 406.570007 149.830017 403.26001 109.429993 C 403.226664 109.009989 403.003326 108.763326 402.589996 108.690002 C 397.83666 107.816671 392.889994 107.273336 387.75 107.059998 C 317.480011 104.149994 238.25 116.25 184.389999 165.210022 C 162.656662 184.963338 145.966665 208.049998 134.320007 234.470001 C 119.949997 267.070007 112.550003 302.910004 109.82 338.549988 C 108.126666 360.656657 107.793332 382.709991 108.82 404.709991 C 108.839999 405.056671 109.023333 405.233337 109.370003 405.23999 C 128.476667 405.566671 146.01 405.366679 161.970001 404.640015 C 201.779999 402.829987 242.160004 395.149994 278.679993 378.630005 C 305.166667 366.636678 327.559998 350.123342 345.859985 329.089996 Z"/>
    <path id="path2" fill="#ffffff" stroke="none" d="M 361.470001 149.690002 C 341.09667 157.910014 321.299998 168.650014 302.079987 181.910004 C 236.839996 226.899994 185.5 290.190002 150.119995 361.320007 C 149.553335 362.446676 149.300003 362.383341 149.360001 361.130005 C 151.073329 324.036662 159.879995 289.156657 175.779999 256.48999 C 194.330002 218.390015 224.199997 187.660004 262.630005 169.570007 C 293.059998 155.25 327.109985 149.460022 361.399994 149.350006 C 362.026662 149.343333 362.049998 149.456665 361.470001 149.690002 Z"/>
</svg>
