<?xml version="1.0" encoding="UTF-8"?>
<!-- Generated by Pixelmator Pro 3.3.2 -->
<svg width="512" height="512" viewBox="0 0 512 512" xmlns="http://www.w3.org/2000/svg" xmlns:xlink="http://www.w3.org/1999/xlink">
    <path id="path1" fill="#0f172a" fill-rule="evenodd" stroke="none" d="M 0 448 C -0 483.346222 28.653776 512 64 512 L 449 512 C 484.346222 512 513 483.346222 513 448 L 513 64 C 513 28.653778 484.346222 0 449 0 L 64 0 C 28.653776 0 0 28.653778 0 64 Z"/>
    <path id="path2" fill="#ffffff" stroke="none" d="M 306.160004 413.269989 C 253.869995 439.519989 193.130005 448.309998 134.860001 447.950012 C 117.986671 447.843353 95.983337 446.426666 68.849998 443.700012 C 68.470001 443.660004 68.260002 443.453339 68.220001 443.079987 C 63.619999 398.059998 63.040001 352 69.099998 307.950012 C 73.970001 272.640015 83.489998 237.859985 99.230003 206.390015 C 125.056671 154.756683 164.786667 116.920013 218.419998 92.880005 C 257.390015 75.419983 299.920013 66.919983 342.929993 64.649994 C 375.656647 62.916656 408.33667 64.746674 440.970001 70.140015 C 441.393127 70.212006 441.723114 70.546021 441.790009 70.970001 C 447.476685 105.823334 449.179993 140.766663 446.899994 175.799988 C 444.290009 215.97998 435.980011 256.149994 419.98999 292.51001 C 396.056671 346.929993 358.113342 387.18335 306.160004 413.269989 Z M 345.859985 329.089996 C 370.769989 300.450012 386.679993 266.980011 395.429993 230.179993 C 404.76001 190.940002 406.570007 149.830017 403.26001 109.429993 C 403.226654 109.009979 403.003326 108.763336 402.589996 108.690002 C 397.83667 107.816681 392.889984 107.273346 387.75 107.059998 C 317.480011 104.149994 238.25 116.25 184.389999 165.210022 C 162.656662 184.963348 145.96666 208.049988 134.320007 234.470001 C 119.949997 267.070007 112.550003 302.910004 109.82 338.549988 C 108.126663 360.656677 107.793335 382.709991 108.82 404.709991 C 108.839996 405.056671 109.023331 405.233337 109.370003 405.23999 C 128.476669 405.566681 146.009995 405.366669 161.970001 404.640015 C 201.779999 402.829987 242.160004 395.149994 278.679993 378.630005 C 305.166656 366.636658 327.559998 350.123352 345.859985 329.089996 Z"/>
    <path id="path3" fill="#ffffff" stroke="none" d="M 361.470001 149.690002 C 341.09668 157.910004 321.299988 168.650024 302.079987 181.910004 C 236.839996 226.899994 185.5 290.190002 150.119995 361.320007 C 149.553329 362.446655 149.300003 362.383362 149.360001 361.130005 C 151.073334 324.036682 159.87999 289.156677 175.779999 256.48999 C 194.330002 218.390015 224.199997 187.660004 262.630005 169.570007 C 293.059998 155.25 327.109985 149.460022 361.399994 149.350006 C 362.026672 149.343323 362.049988 149.456665 361.470001 149.690002 Z"/>
</svg>
