<?xml version="1.0" encoding="UTF-8" standalone="no"?>
<!DOCTYPE svg PUBLIC "-//W3C//DTD SVG 1.1//EN" "http://www.w3.org/Graphics/SVG/1.1/DTD/svg11.dtd">
<svg xmlns="http://www.w3.org/2000/svg" version="1.1" viewBox="0.00 0.00 512.00 512.00">
<path fill="#000000" d="
  M 306.16 413.27
  C 253.87 439.52 193.13 448.31 134.86 447.95
  Q 109.55 447.79 68.85 443.70
  Q 68.28 443.64 68.22 443.08
  C 63.62 398.06 63.04 352.00 69.10 307.95
  C 73.97 272.64 83.49 237.86 99.23 206.39
  Q 137.97 128.94 218.42 92.88
  C 257.39 75.42 299.92 66.92 342.93 64.65
  Q 392.02 62.05 440.97 70.14
  A 1.00 1.00 0.0 0 1 441.79 70.97
  Q 450.32 123.25 446.90 175.80
  C 444.29 215.98 435.98 256.15 419.99 292.51
  Q 384.09 374.14 306.16 413.27
  Z
  M 345.86 329.09
  C 370.77 300.45 386.68 266.98 395.43 230.18
  C 404.76 190.94 406.57 149.83 403.26 109.43
  Q 403.21 108.80 402.59 108.69
  Q 395.46 107.38 387.75 107.06
  C 317.48 104.15 238.25 116.25 184.39 165.21
  Q 151.79 194.84 134.32 234.47
  C 119.95 267.07 112.55 302.91 109.82 338.55
  Q 107.28 371.71 108.82 404.71
  Q 108.85 405.23 109.37 405.24
  Q 138.03 405.73 161.97 404.64
  C 201.78 402.83 242.16 395.15 278.68 378.63
  Q 318.41 360.64 345.86 329.09
  Z"
/>
<path fill="#000000" d="
  M 361.47 149.69
  Q 330.91 162.02 302.08 181.91
  C 236.84 226.90 185.50 290.19 150.12 361.32
  Q 149.27 363.01 149.36 361.13
  Q 151.93 305.49 175.78 256.49
  C 194.33 218.39 224.20 187.66 262.63 169.57
  C 293.06 155.25 327.11 149.46 361.40 149.35
  Q 362.34 149.34 361.47 149.69
  Z"
/>
</svg>
